# xmcd CD database file
#
# Track frame offsets:
#	150
#	140201
#	248705
#
# Disc length: 3677 seconds
#
# Revision: 1
# Processed by: cddbd v1.4PL0 Copyright (c) Steve Scherf et al.
# Submitted via: CDex 1.51
#
DISCID=270e5b03
DTITLE=Steve Gordon - The Heart Of Peace 
DYEAR=2003
DGENRE=New Age
TTITLE0=Healing Ocean
TTITLE1=Flow of Harmony
TTITLE2=Awakening Peace
EXTD=YEAR: 2003
EXTT0=
EXTT1=
EXTT2=
PLAYORDER=
